<svg xmlns="http://www.w3.org/2000/svg" viewBox="0 0 256 256">
<defs>
<linearGradient id="vault-bg" x1="0" y1="0" x2="0" y2="1"><stop offset="0" stop-color="#4876EC"/><stop offset="1" stop-color="#2F5FD8"/></linearGradient>
<linearGradient id="vault-body" x1="0" y1="0" x2="0" y2="1"><stop offset="0" stop-color="#FFF9EC"/><stop offset="1" stop-color="#EEE2CA"/></linearGradient>
<linearGradient id="vault-dark" x1="0" y1="0" x2="0" y2="1"><stop offset="0" stop-color="#1F2526"/><stop offset="1" stop-color="#343C3D"/></linearGradient>
<radialGradient id="vault-knob" cx="0.4" cy="0.35" r="0.7"><stop offset="0" stop-color="#4876EC"/><stop offset="1" stop-color="#2F5FD8"/></radialGradient>
<filter id="vault-shadow" x="-20%" y="-20%" width="140%" height="150%"><feDropShadow dx="0" dy="8" stdDeviation="9" flood-color="#000" flood-opacity="0.28"/></filter>
</defs>
<rect width="256" height="256" rx="57" fill="url(#vault-bg)"/>
<rect x="28" y="80" width="18" height="34" rx="7" fill="#283030"/>
<rect x="28" y="146" width="18" height="34" rx="7" fill="#283030"/>
<g filter="url(#vault-shadow)"><rect x="36" y="42" width="186" height="172" rx="38" fill="url(#vault-body)"/></g>
<rect x="52" y="58" width="154" height="140" rx="26" fill="none" stroke="#E2D3B6" stroke-width="3"/>
<g class="dial">
<circle cx="118" cy="128" r="46" fill="url(#vault-dark)"/>
<rect x="116" y="88" width="4" height="10" rx="2" fill="#F2C14E" transform="rotate(0 118 128)"/>
<rect x="116" y="88" width="4" height="10" rx="2" fill="#F2C14E" transform="rotate(30 118 128)"/>
<rect x="116" y="88" width="4" height="10" rx="2" fill="#F2C14E" transform="rotate(60 118 128)"/>
<rect x="116" y="88" width="4" height="10" rx="2" fill="#F2C14E" transform="rotate(90 118 128)"/>
<rect x="116" y="88" width="4" height="10" rx="2" fill="#F2C14E" transform="rotate(120 118 128)"/>
<rect x="116" y="88" width="4" height="10" rx="2" fill="#F2C14E" transform="rotate(150 118 128)"/>
<rect x="116" y="88" width="4" height="10" rx="2" fill="#F2C14E" transform="rotate(180 118 128)"/>
<rect x="116" y="88" width="4" height="10" rx="2" fill="#F2C14E" transform="rotate(210 118 128)"/>
<rect x="116" y="88" width="4" height="10" rx="2" fill="#F2C14E" transform="rotate(240 118 128)"/>
<rect x="116" y="88" width="4" height="10" rx="2" fill="#F2C14E" transform="rotate(270 118 128)"/>
<rect x="116" y="88" width="4" height="10" rx="2" fill="#F2C14E" transform="rotate(300 118 128)"/>
<rect x="116" y="88" width="4" height="10" rx="2" fill="#F2C14E" transform="rotate(330 118 128)"/>
</g>
<circle class="knob" cx="118" cy="128" r="17" fill="url(#vault-knob)"/>
<rect x="176" y="94" width="20" height="68" rx="10" fill="#283030"/>
</svg>
